<svg width="101" height="101" viewBox="0 0 101 101" fill="none" xmlns="http://www.w3.org/2000/svg">
<mask id="mask0_48_200" style="mask-type:luminance" maskUnits="userSpaceOnUse" x="0" y="0" width="101" height="101">
<path d="M100.76 0.849976H0.76001V100.85H100.76V0.849976Z" fill="white"/>
</mask>
<g mask="url(#mask0_48_200)">
<path d="M4.61001 6.14001C3.31001 6.14001 2.26001 6.98002 2.26001 8.02002V20.45C2.26001 21.49 3.31001 22.33 4.61001 22.33C5.91001 22.33 6.96001 21.49 6.96001 20.45V8.02002C6.96001 6.98002 5.91001 6.14001 4.61001 6.14001Z" fill="white"/>
<path d="M13.07 6.14001C11.77 6.14001 10.72 6.98002 10.72 8.02002V20.45C10.72 21.49 11.77 22.33 13.07 22.33C14.37 22.33 15.42 21.49 15.42 20.45V8.02002C15.42 6.98002 14.37 6.14001 13.07 6.14001Z" fill="white"/>
<path d="M21.53 6.14001C20.23 6.14001 19.18 6.98002 19.18 8.02002V20.45C19.18 21.49 20.23 22.33 21.53 22.33C22.83 22.33 23.88 21.49 23.88 20.45V8.02002C23.88 6.98002 22.83 6.14001 21.53 6.14001Z" fill="white"/>
<path d="M4.61001 26.54C3.31001 26.54 2.26001 27.38 2.26001 28.42V40.85C2.26001 41.89 3.31001 42.73 4.61001 42.73C5.91001 42.73 6.96001 41.89 6.96001 40.85V28.42C6.96001 27.38 5.91001 26.54 4.61001 26.54Z" fill="white"/>
<path d="M13.07 26.54C11.77 26.54 10.72 27.38 10.72 28.42V40.85C10.72 41.89 11.77 42.73 13.07 42.73C14.37 42.73 15.42 41.89 15.42 40.85V28.42C15.42 27.38 14.37 26.54 13.07 26.54Z" fill="white"/>
<path d="M21.53 26.54C20.23 26.54 19.18 27.38 19.18 28.42V40.85C19.18 41.89 20.23 42.73 21.53 42.73C22.83 42.73 23.88 41.89 23.88 40.85V28.42C23.88 27.38 22.83 26.54 21.53 26.54Z" fill="white"/>
<path d="M4.61001 46.94C3.31001 46.94 2.26001 47.78 2.26001 48.82V61.25C2.26001 62.29 3.31001 63.13 4.61001 63.13C5.91001 63.13 6.96001 62.29 6.96001 61.25V48.82C6.96001 47.78 5.91001 46.94 4.61001 46.94Z" fill="white"/>
<path d="M13.07 46.94C11.77 46.94 10.72 47.78 10.72 48.82V61.25C10.72 62.29 11.77 63.13 13.07 63.13C14.37 63.13 15.42 62.29 15.42 61.25V48.82C15.42 47.78 14.37 46.94 13.07 46.94Z" fill="white"/>
<path d="M21.53 46.94C20.23 46.94 19.18 47.78 19.18 48.82V61.25C19.18 62.29 20.23 63.13 21.53 63.13C22.83 63.13 23.88 62.29 23.88 61.25V48.82C23.88 47.78 22.83 46.94 21.53 46.94Z" fill="white"/>
<path d="M4.61001 67.34C3.31001 67.34 2.26001 68.18 2.26001 69.22V81.65C2.26001 82.69 3.31001 83.53 4.61001 83.53C5.91001 83.53 6.96001 82.69 6.96001 81.65V69.22C6.96001 68.18 5.91001 67.34 4.61001 67.34Z" fill="white"/>
<path d="M13.07 67.34C11.77 67.34 10.72 68.18 10.72 69.22V81.65C10.72 82.69 11.77 83.53 13.07 83.53C14.37 83.53 15.42 82.69 15.42 81.65V69.22C15.42 68.18 14.37 67.34 13.07 67.34Z" fill="white"/>
<path d="M21.53 67.34C20.23 67.34 19.18 68.18 19.18 69.22V81.65C19.18 82.69 20.23 83.53 21.53 83.53C22.83 83.53 23.88 82.69 23.88 81.65V69.22C23.88 68.18 22.83 67.34 21.53 67.34Z" fill="white"/>
<path d="M4.61001 87.74C3.31001 87.74 2.26001 88.58 2.26001 89.62V102.05C2.26001 103.09 3.31001 103.93 4.61001 103.93C5.91001 103.93 6.96001 103.09 6.96001 102.05V89.62C6.96001 88.58 5.91001 87.74 4.61001 87.74Z" fill="white"/>
<path d="M13.07 87.74C11.77 87.74 10.72 88.58 10.72 89.62V102.05C10.72 103.09 11.77 103.93 13.07 103.93C14.37 103.93 15.42 103.09 15.42 102.05V89.62C15.42 88.58 14.37 87.74 13.07 87.74Z" fill="white"/>
<path d="M21.53 87.74C20.23 87.74 19.18 88.58 19.18 89.62V102.05C19.18 103.09 20.23 103.93 21.53 103.93C22.83 103.93 23.88 103.09 23.88 102.05V89.62C23.88 88.58 22.83 87.74 21.53 87.74Z" fill="white"/>
<path d="M4.61001 -12.26C3.31001 -12.26 2.26001 -11.42 2.26001 -10.38V2.04999C2.26001 3.08999 3.31001 3.92999 4.61001 3.92999C5.91001 3.92999 6.96001 3.08999 6.96001 2.04999V-10.38C6.96001 -11.42 5.91001 -12.26 4.61001 -12.26Z" fill="white"/>
<path d="M13.07 -12.26C11.77 -12.26 10.72 -11.42 10.72 -10.38V2.04999C10.72 3.08999 11.77 3.92999 13.07 3.92999C14.37 3.92999 15.42 3.08999 15.42 2.04999V-10.38C15.42 -11.42 14.37 -12.26 13.07 -12.26Z" fill="white"/>
<path d="M21.53 -12.26C20.23 -12.26 19.18 -11.42 19.18 -10.38V2.04999C19.18 3.08999 20.23 3.92999 21.53 3.92999C22.83 3.92999 23.88 3.08999 23.88 2.04999V-10.38C23.88 -11.42 22.83 -12.26 21.53 -12.26Z" fill="white"/>
<path d="M29.74 16.16C28.44 16.16 27.39 17 27.39 18.04V30.47C27.39 31.51 28.44 32.35 29.74 32.35C31.04 32.35 32.09 31.51 32.09 30.47V18.04C32.09 17 31.04 16.16 29.74 16.16Z" fill="white"/>
<path d="M38.2 16.16C36.9 16.16 35.85 17 35.85 18.04V30.47C35.85 31.51 36.9 32.35 38.2 32.35C39.5 32.35 40.55 31.51 40.55 30.47V18.04C40.55 17 39.5 16.16 38.2 16.16Z" fill="white"/>
<path d="M46.66 16.16C45.36 16.16 44.31 17 44.31 18.04V30.47C44.31 31.51 45.36 32.35 46.66 32.35C47.96 32.35 49.01 31.51 49.01 30.47V18.04C49.01 17 47.96 16.16 46.66 16.16Z" fill="white"/>
<path d="M29.74 36.56C28.44 36.56 27.39 37.4 27.39 38.44V50.87C27.39 51.91 28.44 52.75 29.74 52.75C31.04 52.75 32.09 51.91 32.09 50.87V38.44C32.09 37.4 31.04 36.56 29.74 36.56Z" fill="white"/>
<path d="M38.2 36.56C36.9 36.56 35.85 37.4 35.85 38.44V50.87C35.85 51.91 36.9 52.75 38.2 52.75C39.5 52.75 40.55 51.91 40.55 50.87V38.44C40.55 37.4 39.5 36.56 38.2 36.56Z" fill="white"/>
<path d="M46.66 36.56C45.36 36.56 44.31 37.4 44.31 38.44V50.87C44.31 51.91 45.36 52.75 46.66 52.75C47.96 52.75 49.01 51.91 49.01 50.87V38.44C49.01 37.4 47.96 36.56 46.66 36.56Z" fill="white"/>
<path d="M29.74 56.96C28.44 56.96 27.39 57.8 27.39 58.84V71.27C27.39 72.31 28.44 73.15 29.74 73.15C31.04 73.15 32.09 72.31 32.09 71.27V58.84C32.09 57.8 31.04 56.96 29.74 56.96Z" fill="white"/>
<path d="M38.2 56.96C36.9 56.96 35.85 57.8 35.85 58.84V71.27C35.85 72.31 36.9 73.15 38.2 73.15C39.5 73.15 40.55 72.31 40.55 71.27V58.84C40.55 57.8 39.5 56.96 38.2 56.96Z" fill="white"/>
<path d="M46.66 56.96C45.36 56.96 44.31 57.8 44.31 58.84V71.27C44.31 72.31 45.36 73.15 46.66 73.15C47.96 73.15 49.01 72.31 49.01 71.27V58.84C49.01 57.8 47.96 56.96 46.66 56.96Z" fill="white"/>
<path d="M29.74 77.36C28.44 77.36 27.39 78.2 27.39 79.24V91.67C27.39 92.71 28.44 93.55 29.74 93.55C31.04 93.55 32.09 92.71 32.09 91.67V79.24C32.09 78.2 31.04 77.36 29.74 77.36Z" fill="white"/>
<path d="M38.2 77.36C36.9 77.36 35.85 78.2 35.85 79.24V91.67C35.85 92.71 36.9 93.55 38.2 93.55C39.5 93.55 40.55 92.71 40.55 91.67V79.24C40.55 78.2 39.5 77.36 38.2 77.36Z" fill="white"/>
<path d="M46.66 77.36C45.36 77.36 44.31 78.2 44.31 79.24V91.67C44.31 92.71 45.36 93.55 46.66 93.55C47.96 93.55 49.01 92.71 49.01 91.67V79.24C49.01 78.2 47.96 77.36 46.66 77.36Z" fill="white"/>
<path d="M29.74 97.76C28.44 97.76 27.39 98.6 27.39 99.64V112.07C27.39 113.11 28.44 113.95 29.74 113.95C31.04 113.95 32.09 113.11 32.09 112.07V99.64C32.09 98.6 31.04 97.76 29.74 97.76Z" fill="white"/>
<path d="M38.2 97.76C36.9 97.76 35.85 98.6 35.85 99.64V112.07C35.85 113.11 36.9 113.95 38.2 113.95C39.5 113.95 40.55 113.11 40.55 112.07V99.64C40.55 98.6 39.5 97.76 38.2 97.76Z" fill="white"/>
<path d="M46.66 97.76C45.36 97.76 44.31 98.6 44.31 99.64V112.07C44.31 113.11 45.36 113.95 46.66 113.95C47.96 113.95 49.01 113.11 49.01 112.07V99.64C49.01 98.6 47.96 97.76 46.66 97.76Z" fill="white"/>
<path d="M29.74 -2.23999C28.44 -2.23999 27.39 -1.39999 27.39 -0.359991V12.07C27.39 13.11 28.44 13.95 29.74 13.95C31.04 13.95 32.09 13.11 32.09 12.07V-0.359991C32.09 -1.39999 31.04 -2.23999 29.74 -2.23999Z" fill="white"/>
<path d="M38.2 -2.23999C36.9 -2.23999 35.85 -1.39999 35.85 -0.359991V12.07C35.85 13.11 36.9 13.95 38.2 13.95C39.5 13.95 40.55 13.11 40.55 12.07V-0.359991C40.55 -1.39999 39.5 -2.23999 38.2 -2.23999Z" fill="white"/>
<path d="M46.66 -2.23999C45.36 -2.23999 44.31 -1.39999 44.31 -0.359991V12.07C44.31 13.11 45.36 13.95 46.66 13.95C47.96 13.95 49.01 13.11 49.01 12.07V-0.359991C49.01 -1.39999 47.96 -2.23999 46.66 -2.23999Z" fill="white"/>
<path d="M54.87 6.14001C53.57 6.14001 52.52 6.98002 52.52 8.02002V20.45C52.52 21.49 53.57 22.33 54.87 22.33C56.17 22.33 57.22 21.49 57.22 20.45V8.02002C57.22 6.98002 56.17 6.14001 54.87 6.14001Z" fill="white"/>
<path d="M63.33 6.14001C62.03 6.14001 60.98 6.98002 60.98 8.02002V20.45C60.98 21.49 62.03 22.33 63.33 22.33C64.63 22.33 65.68 21.49 65.68 20.45V8.02002C65.68 6.98002 64.63 6.14001 63.33 6.14001Z" fill="white"/>
<path d="M71.79 6.14001C70.49 6.14001 69.44 6.98002 69.44 8.02002V20.45C69.44 21.49 70.49 22.33 71.79 22.33C73.09 22.33 74.14 21.49 74.14 20.45V8.02002C74.14 6.98002 73.09 6.14001 71.79 6.14001Z" fill="white"/>
<path d="M54.87 26.54C53.57 26.54 52.52 27.38 52.52 28.42V40.85C52.52 41.89 53.57 42.73 54.87 42.73C56.17 42.73 57.22 41.89 57.22 40.85V28.42C57.22 27.38 56.17 26.54 54.87 26.54Z" fill="white"/>
<path d="M63.33 26.54C62.03 26.54 60.98 27.38 60.98 28.42V40.85C60.98 41.89 62.03 42.73 63.33 42.73C64.63 42.73 65.68 41.89 65.68 40.85V28.42C65.68 27.38 64.63 26.54 63.33 26.54Z" fill="white"/>
<path d="M71.79 26.54C70.49 26.54 69.44 27.38 69.44 28.42V40.85C69.44 41.89 70.49 42.73 71.79 42.73C73.09 42.73 74.14 41.89 74.14 40.85V28.42C74.14 27.38 73.09 26.54 71.79 26.54Z" fill="white"/>
<path d="M54.87 46.94C53.57 46.94 52.52 47.78 52.52 48.82V61.25C52.52 62.29 53.57 63.13 54.87 63.13C56.17 63.13 57.22 62.29 57.22 61.25V48.82C57.22 47.78 56.17 46.94 54.87 46.94Z" fill="white"/>
<path d="M63.33 46.94C62.03 46.94 60.98 47.78 60.98 48.82V61.25C60.98 62.29 62.03 63.13 63.33 63.13C64.63 63.13 65.68 62.29 65.68 61.25V48.82C65.68 47.78 64.63 46.94 63.33 46.94Z" fill="white"/>
<path d="M71.79 46.94C70.49 46.94 69.44 47.78 69.44 48.82V61.25C69.44 62.29 70.49 63.13 71.79 63.13C73.09 63.13 74.14 62.29 74.14 61.25V48.82C74.14 47.78 73.09 46.94 71.79 46.94Z" fill="white"/>
<path d="M54.87 67.34C53.57 67.34 52.52 68.18 52.52 69.22V81.65C52.52 82.69 53.57 83.53 54.87 83.53C56.17 83.53 57.22 82.69 57.22 81.65V69.22C57.22 68.18 56.17 67.34 54.87 67.34Z" fill="white"/>
<path d="M63.33 67.34C62.03 67.34 60.98 68.18 60.98 69.22V81.65C60.98 82.69 62.03 83.53 63.33 83.53C64.63 83.53 65.68 82.69 65.68 81.65V69.22C65.68 68.18 64.63 67.34 63.33 67.34Z" fill="white"/>
<path d="M71.79 67.34C70.49 67.34 69.44 68.18 69.44 69.22V81.65C69.44 82.69 70.49 83.53 71.79 83.53C73.09 83.53 74.14 82.69 74.14 81.65V69.22C74.14 68.18 73.09 67.34 71.79 67.34Z" fill="white"/>
<path d="M54.87 87.74C53.57 87.74 52.52 88.58 52.52 89.62V102.05C52.52 103.09 53.57 103.93 54.87 103.93C56.17 103.93 57.22 103.09 57.22 102.05V89.62C57.22 88.58 56.17 87.74 54.87 87.74Z" fill="white"/>
<path d="M63.33 87.74C62.03 87.74 60.98 88.58 60.98 89.62V102.05C60.98 103.09 62.03 103.93 63.33 103.93C64.63 103.93 65.68 103.09 65.68 102.05V89.62C65.68 88.58 64.63 87.74 63.33 87.74Z" fill="white"/>
<path d="M71.79 87.74C70.49 87.74 69.44 88.58 69.44 89.62V102.05C69.44 103.09 70.49 103.93 71.79 103.93C73.09 103.93 74.14 103.09 74.14 102.05V89.62C74.14 88.58 73.09 87.74 71.79 87.74Z" fill="white"/>
<path d="M54.87 -12.26C53.57 -12.26 52.52 -11.42 52.52 -10.38V2.04999C52.52 3.08999 53.57 3.92999 54.87 3.92999C56.17 3.92999 57.22 3.08999 57.22 2.04999V-10.38C57.22 -11.42 56.17 -12.26 54.87 -12.26Z" fill="white"/>
<path d="M63.33 -12.26C62.03 -12.26 60.98 -11.42 60.98 -10.38V2.04999C60.98 3.08999 62.03 3.92999 63.33 3.92999C64.63 3.92999 65.68 3.08999 65.68 2.04999V-10.38C65.68 -11.42 64.63 -12.26 63.33 -12.26Z" fill="white"/>
<path d="M71.79 -12.26C70.49 -12.26 69.44 -11.42 69.44 -10.38V2.04999C69.44 3.08999 70.49 3.92999 71.79 3.92999C73.09 3.92999 74.14 3.08999 74.14 2.04999V-10.38C74.14 -11.42 73.09 -12.26 71.79 -12.26Z" fill="white"/>
<path d="M80 16.16C78.7 16.16 77.65 17 77.65 18.04V30.47C77.65 31.51 78.7 32.35 80 32.35C81.3 32.35 82.35 31.51 82.35 30.47V18.04C82.35 17 81.3 16.16 80 16.16Z" fill="white"/>
<path d="M88.4601 16.16C87.1601 16.16 86.11 17 86.11 18.04V30.47C86.11 31.51 87.1601 32.35 88.4601 32.35C89.7601 32.35 90.81 31.51 90.81 30.47V18.04C90.81 17 89.7601 16.16 88.4601 16.16Z" fill="white"/>
<path d="M96.92 16.16C95.62 16.16 94.57 17 94.57 18.04V30.47C94.57 31.51 95.62 32.35 96.92 32.35C98.22 32.35 99.27 31.51 99.27 30.47V18.04C99.27 17 98.22 16.16 96.92 16.16Z" fill="white"/>
<path d="M80 36.56C78.7 36.56 77.65 37.4 77.65 38.44V50.87C77.65 51.91 78.7 52.75 80 52.75C81.3 52.75 82.35 51.91 82.35 50.87V38.44C82.35 37.4 81.3 36.56 80 36.56Z" fill="white"/>
<path d="M88.4601 36.56C87.1601 36.56 86.11 37.4 86.11 38.44V50.87C86.11 51.91 87.1601 52.75 88.4601 52.75C89.7601 52.75 90.81 51.91 90.81 50.87V38.44C90.81 37.4 89.7601 36.56 88.4601 36.56Z" fill="white"/>
<path d="M96.92 36.56C95.62 36.56 94.57 37.4 94.57 38.44V50.87C94.57 51.91 95.62 52.75 96.92 52.75C98.22 52.75 99.27 51.91 99.27 50.87V38.44C99.27 37.4 98.22 36.56 96.92 36.56Z" fill="white"/>
<path d="M80 56.96C78.7 56.96 77.65 57.8 77.65 58.84V71.27C77.65 72.31 78.7 73.15 80 73.15C81.3 73.15 82.35 72.31 82.35 71.27V58.84C82.35 57.8 81.3 56.96 80 56.96Z" fill="white"/>
<path d="M88.4601 56.96C87.1601 56.96 86.11 57.8 86.11 58.84V71.27C86.11 72.31 87.1601 73.15 88.4601 73.15C89.7601 73.15 90.81 72.31 90.81 71.27V58.84C90.81 57.8 89.7601 56.96 88.4601 56.96Z" fill="white"/>
<path d="M96.92 56.96C95.62 56.96 94.57 57.8 94.57 58.84V71.27C94.57 72.31 95.62 73.15 96.92 73.15C98.22 73.15 99.27 72.31 99.27 71.27V58.84C99.27 57.8 98.22 56.96 96.92 56.96Z" fill="white"/>
<path d="M80 77.36C78.7 77.36 77.65 78.2 77.65 79.24V91.67C77.65 92.71 78.7 93.55 80 93.55C81.3 93.55 82.35 92.71 82.35 91.67V79.24C82.35 78.2 81.3 77.36 80 77.36Z" fill="white"/>
<path d="M88.4601 77.36C87.1601 77.36 86.11 78.2 86.11 79.24V91.67C86.11 92.71 87.1601 93.55 88.4601 93.55C89.7601 93.55 90.81 92.71 90.81 91.67V79.24C90.81 78.2 89.7601 77.36 88.4601 77.36Z" fill="white"/>
<path d="M96.92 77.36C95.62 77.36 94.57 78.2 94.57 79.24V91.67C94.57 92.71 95.62 93.55 96.92 93.55C98.22 93.55 99.27 92.71 99.27 91.67V79.24C99.27 78.2 98.22 77.36 96.92 77.36Z" fill="white"/>
<path d="M80 97.76C78.7 97.76 77.65 98.6 77.65 99.64V112.07C77.65 113.11 78.7 113.95 80 113.95C81.3 113.95 82.35 113.11 82.35 112.07V99.64C82.35 98.6 81.3 97.76 80 97.76Z" fill="white"/>
<path d="M88.4601 97.76C87.1601 97.76 86.11 98.6 86.11 99.64V112.07C86.11 113.11 87.1601 113.95 88.4601 113.95C89.7601 113.95 90.81 113.11 90.81 112.07V99.64C90.81 98.6 89.7601 97.76 88.4601 97.76Z" fill="white"/>
<path d="M96.92 97.76C95.62 97.76 94.57 98.6 94.57 99.64V112.07C94.57 113.11 95.62 113.95 96.92 113.95C98.22 113.95 99.27 113.11 99.27 112.07V99.64C99.27 98.6 98.22 97.76 96.92 97.76Z" fill="white"/>
<path d="M80 -2.23999C78.7 -2.23999 77.65 -1.39999 77.65 -0.359991V12.07C77.65 13.11 78.7 13.95 80 13.95C81.3 13.95 82.35 13.11 82.35 12.07V-0.359991C82.35 -1.39999 81.3 -2.23999 80 -2.23999Z" fill="white"/>
<path d="M88.4601 -2.23999C87.1601 -2.23999 86.11 -1.39999 86.11 -0.359991V12.07C86.11 13.11 87.1601 13.95 88.4601 13.95C89.7601 13.95 90.81 13.11 90.81 12.07V-0.359991C90.81 -1.39999 89.7601 -2.23999 88.4601 -2.23999Z" fill="white"/>
<path d="M96.92 -2.23999C95.62 -2.23999 94.57 -1.39999 94.57 -0.359991V12.07C94.57 13.11 95.62 13.95 96.92 13.95C98.22 13.95 99.27 13.11 99.27 12.07V-0.359991C99.27 -1.39999 98.22 -2.23999 96.92 -2.23999Z" fill="white"/>
</g>
</svg>
