<?xml version="1.0" encoding="UTF-8"?>
<svg id="Pattern_copy" data-name="Pattern copy" xmlns="http://www.w3.org/2000/svg" xmlns:xlink="http://www.w3.org/1999/xlink" viewBox="0 0 197.52 187.24">
  <defs>
    <style>
      .cls-1 {
        fill: none;
      }

      .cls-2 {
        clip-path: url(#clippath);
      }
    </style>
    <clipPath id="clippath">
      <rect class="cls-1" x="48.76" y="22.85" width="100" height="100"/>
    </clipPath>
  </defs>
  <g class="cls-2">
    <g>
      <path d="M2.35,28.14c-1.3,0-2.35.84-2.35,1.88v12.43c0,1.04,1.05,1.88,2.35,1.88s2.35-.84,2.35-1.88v-12.43c0-1.04-1.05-1.88-2.35-1.88Z"/>
      <path d="M10.81,28.14c-1.3,0-2.35.84-2.35,1.88v12.43c0,1.04,1.05,1.88,2.35,1.88s2.35-.84,2.35-1.88v-12.43c0-1.04-1.05-1.88-2.35-1.88Z"/>
      <path d="M19.27,28.14c-1.3,0-2.35.84-2.35,1.88v12.43c0,1.04,1.05,1.88,2.35,1.88s2.35-.84,2.35-1.88v-12.43c0-1.04-1.05-1.88-2.35-1.88Z"/>
    </g>
    <g>
      <path d="M2.35,48.54c-1.3,0-2.35.84-2.35,1.88v12.43c0,1.04,1.05,1.88,2.35,1.88s2.35-.84,2.35-1.88v-12.43c0-1.04-1.05-1.88-2.35-1.88Z"/>
      <path d="M10.81,48.54c-1.3,0-2.35.84-2.35,1.88v12.43c0,1.04,1.05,1.88,2.35,1.88s2.35-.84,2.35-1.88v-12.43c0-1.04-1.05-1.88-2.35-1.88Z"/>
      <path d="M19.27,48.54c-1.3,0-2.35.84-2.35,1.88v12.43c0,1.04,1.05,1.88,2.35,1.88s2.35-.84,2.35-1.88v-12.43c0-1.04-1.05-1.88-2.35-1.88Z"/>
    </g>
    <g>
      <path d="M2.35,68.94c-1.3,0-2.35.84-2.35,1.88v12.43c0,1.04,1.05,1.88,2.35,1.88s2.35-.84,2.35-1.88v-12.43c0-1.04-1.05-1.88-2.35-1.88Z"/>
      <path d="M10.81,68.94c-1.3,0-2.35.84-2.35,1.88v12.43c0,1.04,1.05,1.88,2.35,1.88s2.35-.84,2.35-1.88v-12.43c0-1.04-1.05-1.88-2.35-1.88Z"/>
      <path d="M19.27,68.94c-1.3,0-2.35.84-2.35,1.88v12.43c0,1.04,1.05,1.88,2.35,1.88s2.35-.84,2.35-1.88v-12.43c0-1.04-1.05-1.88-2.35-1.88Z"/>
    </g>
    <g>
      <path d="M2.35,89.34c-1.3,0-2.35.84-2.35,1.88v12.43c0,1.04,1.05,1.88,2.35,1.88s2.35-.84,2.35-1.88v-12.43c0-1.04-1.05-1.88-2.35-1.88Z"/>
      <path d="M10.81,89.34c-1.3,0-2.35.84-2.35,1.88v12.43c0,1.04,1.05,1.88,2.35,1.88s2.35-.84,2.35-1.88v-12.43c0-1.04-1.05-1.88-2.35-1.88Z"/>
      <path d="M19.27,89.34c-1.3,0-2.35.84-2.35,1.88v12.43c0,1.04,1.05,1.88,2.35,1.88s2.35-.84,2.35-1.88v-12.43c0-1.04-1.05-1.88-2.35-1.88Z"/>
    </g>
    <g>
      <path d="M2.35,109.74c-1.3,0-2.35.84-2.35,1.88v12.43c0,1.04,1.05,1.88,2.35,1.88s2.35-.84,2.35-1.88v-12.43c0-1.04-1.05-1.88-2.35-1.88Z"/>
      <path d="M10.81,109.74c-1.3,0-2.35.84-2.35,1.88v12.43c0,1.04,1.05,1.88,2.35,1.88s2.35-.84,2.35-1.88v-12.43c0-1.04-1.05-1.88-2.35-1.88Z"/>
      <path d="M19.27,109.74c-1.3,0-2.35.84-2.35,1.88v12.43c0,1.04,1.05,1.88,2.35,1.88s2.35-.84,2.35-1.88v-12.43c0-1.04-1.05-1.88-2.35-1.88Z"/>
    </g>
    <g>
      <path d="M2.35,9.74c-1.3,0-2.35.84-2.35,1.88v12.43c0,1.04,1.05,1.88,2.35,1.88s2.35-.84,2.35-1.88v-12.43c0-1.04-1.05-1.88-2.35-1.88Z"/>
      <path d="M10.81,9.74c-1.3,0-2.35.84-2.35,1.88v12.43c0,1.04,1.05,1.88,2.35,1.88s2.35-.84,2.35-1.88v-12.43c0-1.04-1.05-1.88-2.35-1.88Z"/>
      <path d="M19.27,9.74c-1.3,0-2.35.84-2.35,1.88v12.43c0,1.04,1.05,1.88,2.35,1.88s2.35-.84,2.35-1.88v-12.43c0-1.04-1.05-1.88-2.35-1.88Z"/>
    </g>
    <g>
      <path d="M27.48,38.16c-1.3,0-2.35.84-2.35,1.88v12.43c0,1.04,1.05,1.88,2.35,1.88s2.35-.84,2.35-1.88v-12.43c0-1.04-1.05-1.88-2.35-1.88Z"/>
      <path d="M35.94,38.16c-1.3,0-2.35.84-2.35,1.88v12.43c0,1.04,1.05,1.88,2.35,1.88s2.35-.84,2.35-1.88v-12.43c0-1.04-1.05-1.88-2.35-1.88Z"/>
      <path d="M44.4,38.16c-1.3,0-2.35.84-2.35,1.88v12.43c0,1.04,1.05,1.88,2.35,1.88s2.35-.84,2.35-1.88v-12.43c0-1.04-1.05-1.88-2.35-1.88Z"/>
    </g>
    <g>
      <path d="M27.48,58.56c-1.3,0-2.35.84-2.35,1.88v12.43c0,1.04,1.05,1.88,2.35,1.88s2.35-.84,2.35-1.88v-12.43c0-1.04-1.05-1.88-2.35-1.88Z"/>
      <path d="M35.94,58.56c-1.3,0-2.35.84-2.35,1.88v12.43c0,1.04,1.05,1.88,2.35,1.88s2.35-.84,2.35-1.88v-12.43c0-1.04-1.05-1.88-2.35-1.88Z"/>
      <path d="M44.4,58.56c-1.3,0-2.35.84-2.35,1.88v12.43c0,1.04,1.05,1.88,2.35,1.88s2.35-.84,2.35-1.88v-12.43c0-1.04-1.05-1.88-2.35-1.88Z"/>
    </g>
    <g>
      <path d="M27.48,78.96c-1.3,0-2.35.84-2.35,1.88v12.43c0,1.04,1.05,1.88,2.35,1.88s2.35-.84,2.35-1.88v-12.43c0-1.04-1.05-1.88-2.35-1.88Z"/>
      <path d="M35.94,78.96c-1.3,0-2.35.84-2.35,1.88v12.43c0,1.04,1.05,1.88,2.35,1.88s2.35-.84,2.35-1.88v-12.43c0-1.04-1.05-1.88-2.35-1.88Z"/>
      <path d="M44.4,78.96c-1.3,0-2.35.84-2.35,1.88v12.43c0,1.04,1.05,1.88,2.35,1.88s2.35-.84,2.35-1.88v-12.43c0-1.04-1.05-1.88-2.35-1.88Z"/>
    </g>
    <g>
      <path d="M27.48,99.36c-1.3,0-2.35.84-2.35,1.88v12.43c0,1.04,1.05,1.88,2.35,1.88s2.35-.84,2.35-1.88v-12.43c0-1.04-1.05-1.88-2.35-1.88Z"/>
      <path d="M35.94,99.36c-1.3,0-2.35.84-2.35,1.88v12.43c0,1.04,1.05,1.88,2.35,1.88s2.35-.84,2.35-1.88v-12.43c0-1.04-1.05-1.88-2.35-1.88Z"/>
      <path d="M44.4,99.36c-1.3,0-2.35.84-2.35,1.88v12.43c0,1.04,1.05,1.88,2.35,1.88s2.35-.84,2.35-1.88v-12.43c0-1.04-1.05-1.88-2.35-1.88Z"/>
    </g>
    <g>
      <path d="M27.48,119.76c-1.3,0-2.35.84-2.35,1.88v12.43c0,1.04,1.05,1.88,2.35,1.88s2.35-.84,2.35-1.88v-12.43c0-1.04-1.05-1.88-2.35-1.88Z"/>
      <path d="M35.94,119.76c-1.3,0-2.35.84-2.35,1.88v12.43c0,1.04,1.05,1.88,2.35,1.88s2.35-.84,2.35-1.88v-12.43c0-1.04-1.05-1.88-2.35-1.88Z"/>
      <path d="M44.4,119.76c-1.3,0-2.35.84-2.35,1.88v12.43c0,1.04,1.05,1.88,2.35,1.88s2.35-.84,2.35-1.88v-12.43c0-1.04-1.05-1.88-2.35-1.88Z"/>
    </g>
    <g>
      <path d="M27.48,19.76c-1.3,0-2.35.84-2.35,1.88v12.43c0,1.04,1.05,1.88,2.35,1.88s2.35-.84,2.35-1.88v-12.43c0-1.04-1.05-1.88-2.35-1.88Z"/>
      <path d="M35.94,19.76c-1.3,0-2.35.84-2.35,1.88v12.43c0,1.04,1.05,1.88,2.35,1.88s2.35-.84,2.35-1.88v-12.43c0-1.04-1.05-1.88-2.35-1.88Z"/>
      <path d="M44.4,19.76c-1.3,0-2.35.84-2.35,1.88v12.43c0,1.04,1.05,1.88,2.35,1.88s2.35-.84,2.35-1.88v-12.43c0-1.04-1.05-1.88-2.35-1.88Z"/>
    </g>
    <g>
      <path d="M52.61,28.14c-1.3,0-2.35.84-2.35,1.88v12.43c0,1.04,1.05,1.88,2.35,1.88s2.35-.84,2.35-1.88v-12.43c0-1.04-1.05-1.88-2.35-1.88Z"/>
      <path d="M61.07,28.14c-1.3,0-2.35.84-2.35,1.88v12.43c0,1.04,1.05,1.88,2.35,1.88s2.35-.84,2.35-1.88v-12.43c0-1.04-1.05-1.88-2.35-1.88Z"/>
      <path d="M69.53,28.14c-1.3,0-2.35.84-2.35,1.88v12.43c0,1.04,1.05,1.88,2.35,1.88s2.35-.84,2.35-1.88v-12.43c0-1.04-1.05-1.88-2.35-1.88Z"/>
    </g>
    <g>
      <path d="M52.61,48.54c-1.3,0-2.35.84-2.35,1.88v12.43c0,1.04,1.05,1.88,2.35,1.88s2.35-.84,2.35-1.88v-12.43c0-1.04-1.05-1.88-2.35-1.88Z"/>
      <path d="M61.07,48.54c-1.3,0-2.35.84-2.35,1.88v12.43c0,1.04,1.05,1.88,2.35,1.88s2.35-.84,2.35-1.88v-12.43c0-1.04-1.05-1.88-2.35-1.88Z"/>
      <path d="M69.53,48.54c-1.3,0-2.35.84-2.35,1.88v12.43c0,1.04,1.05,1.88,2.35,1.88s2.35-.84,2.35-1.88v-12.43c0-1.04-1.05-1.88-2.35-1.88Z"/>
    </g>
    <g>
      <path d="M52.61,68.94c-1.3,0-2.35.84-2.35,1.88v12.43c0,1.04,1.05,1.88,2.35,1.88s2.35-.84,2.35-1.88v-12.43c0-1.04-1.05-1.88-2.35-1.88Z"/>
      <path d="M61.07,68.94c-1.3,0-2.35.84-2.35,1.88v12.43c0,1.04,1.05,1.88,2.35,1.88s2.35-.84,2.35-1.88v-12.43c0-1.04-1.05-1.88-2.35-1.88Z"/>
      <path d="M69.53,68.94c-1.3,0-2.35.84-2.35,1.88v12.43c0,1.04,1.05,1.88,2.35,1.88s2.35-.84,2.35-1.88v-12.43c0-1.04-1.05-1.88-2.35-1.88Z"/>
    </g>
    <g>
      <path d="M52.61,89.34c-1.3,0-2.35.84-2.35,1.88v12.43c0,1.04,1.05,1.88,2.35,1.88s2.35-.84,2.35-1.88v-12.43c0-1.04-1.05-1.88-2.35-1.88Z"/>
      <path d="M61.07,89.34c-1.3,0-2.35.84-2.35,1.88v12.43c0,1.04,1.05,1.88,2.35,1.88s2.35-.84,2.35-1.88v-12.43c0-1.04-1.05-1.88-2.35-1.88Z"/>
      <path d="M69.53,89.34c-1.3,0-2.35.84-2.35,1.88v12.43c0,1.04,1.05,1.88,2.35,1.88s2.35-.84,2.35-1.88v-12.43c0-1.04-1.05-1.88-2.35-1.88Z"/>
    </g>
    <g>
      <path d="M52.61,109.74c-1.3,0-2.35.84-2.35,1.88v12.43c0,1.04,1.05,1.88,2.35,1.88s2.35-.84,2.35-1.88v-12.43c0-1.04-1.05-1.88-2.35-1.88Z"/>
      <path d="M61.07,109.74c-1.3,0-2.35.84-2.35,1.88v12.43c0,1.04,1.05,1.88,2.35,1.88s2.35-.84,2.35-1.88v-12.43c0-1.04-1.05-1.88-2.35-1.88Z"/>
      <path d="M69.53,109.74c-1.3,0-2.35.84-2.35,1.88v12.43c0,1.04,1.05,1.88,2.35,1.88s2.35-.84,2.35-1.88v-12.43c0-1.04-1.05-1.88-2.35-1.88Z"/>
    </g>
    <g>
      <path d="M52.61,9.74c-1.3,0-2.35.84-2.35,1.88v12.43c0,1.04,1.05,1.88,2.35,1.88s2.35-.84,2.35-1.88v-12.43c0-1.04-1.05-1.88-2.35-1.88Z"/>
      <path d="M61.07,9.74c-1.3,0-2.35.84-2.35,1.88v12.43c0,1.04,1.05,1.88,2.35,1.88s2.35-.84,2.35-1.88v-12.43c0-1.04-1.05-1.88-2.35-1.88Z"/>
      <path d="M69.53,9.74c-1.3,0-2.35.84-2.35,1.88v12.43c0,1.04,1.05,1.88,2.35,1.88s2.35-.84,2.35-1.88v-12.43c0-1.04-1.05-1.88-2.35-1.88Z"/>
    </g>
    <g>
      <path d="M77.74,38.16c-1.3,0-2.35.84-2.35,1.88v12.43c0,1.04,1.05,1.88,2.35,1.88s2.35-.84,2.35-1.88v-12.43c0-1.04-1.05-1.88-2.35-1.88Z"/>
      <path d="M86.2,38.16c-1.3,0-2.35.84-2.35,1.88v12.43c0,1.04,1.05,1.88,2.35,1.88s2.35-.84,2.35-1.88v-12.43c0-1.04-1.05-1.88-2.35-1.88Z"/>
      <path d="M94.66,38.16c-1.3,0-2.35.84-2.35,1.88v12.43c0,1.04,1.05,1.88,2.35,1.88s2.35-.84,2.35-1.88v-12.43c0-1.04-1.05-1.88-2.35-1.88Z"/>
    </g>
    <g>
      <path d="M77.74,58.56c-1.3,0-2.35.84-2.35,1.88v12.43c0,1.04,1.05,1.88,2.35,1.88s2.35-.84,2.35-1.88v-12.43c0-1.04-1.05-1.88-2.35-1.88Z"/>
      <path d="M86.2,58.56c-1.3,0-2.35.84-2.35,1.88v12.43c0,1.04,1.05,1.88,2.35,1.88s2.35-.84,2.35-1.88v-12.43c0-1.04-1.05-1.88-2.35-1.88Z"/>
      <path d="M94.66,58.56c-1.3,0-2.35.84-2.35,1.88v12.43c0,1.04,1.05,1.88,2.35,1.88s2.35-.84,2.35-1.88v-12.43c0-1.04-1.05-1.88-2.35-1.88Z"/>
    </g>
    <g>
      <path d="M77.74,78.96c-1.3,0-2.35.84-2.35,1.88v12.43c0,1.04,1.05,1.88,2.35,1.88s2.35-.84,2.35-1.88v-12.43c0-1.04-1.05-1.88-2.35-1.88Z"/>
      <path d="M86.2,78.96c-1.3,0-2.35.84-2.35,1.88v12.43c0,1.04,1.05,1.88,2.35,1.88s2.35-.84,2.35-1.88v-12.43c0-1.04-1.05-1.88-2.35-1.88Z"/>
      <path d="M94.66,78.96c-1.3,0-2.35.84-2.35,1.88v12.43c0,1.04,1.05,1.88,2.35,1.88s2.35-.84,2.35-1.88v-12.43c0-1.04-1.05-1.88-2.35-1.88Z"/>
    </g>
    <g>
      <path d="M77.74,99.36c-1.3,0-2.35.84-2.35,1.88v12.43c0,1.04,1.05,1.88,2.35,1.88s2.35-.84,2.35-1.88v-12.43c0-1.04-1.05-1.88-2.35-1.88Z"/>
      <path d="M86.2,99.36c-1.3,0-2.35.84-2.35,1.88v12.43c0,1.04,1.05,1.88,2.35,1.88s2.35-.84,2.35-1.88v-12.43c0-1.04-1.05-1.88-2.35-1.88Z"/>
      <path d="M94.66,99.36c-1.3,0-2.35.84-2.35,1.88v12.43c0,1.04,1.05,1.88,2.35,1.88s2.35-.84,2.35-1.88v-12.43c0-1.04-1.05-1.88-2.35-1.88Z"/>
    </g>
    <g>
      <path d="M77.74,119.76c-1.3,0-2.35.84-2.35,1.88v12.43c0,1.04,1.05,1.88,2.35,1.88s2.35-.84,2.35-1.88v-12.43c0-1.04-1.05-1.88-2.35-1.88Z"/>
      <path d="M86.2,119.76c-1.3,0-2.35.84-2.35,1.88v12.43c0,1.04,1.05,1.88,2.35,1.88s2.35-.84,2.35-1.88v-12.43c0-1.04-1.05-1.88-2.35-1.88Z"/>
      <path d="M94.66,119.76c-1.3,0-2.35.84-2.35,1.88v12.43c0,1.04,1.05,1.88,2.35,1.88s2.35-.84,2.35-1.88v-12.43c0-1.04-1.05-1.88-2.35-1.88Z"/>
    </g>
    <g>
      <path d="M77.74,19.76c-1.3,0-2.35.84-2.35,1.88v12.43c0,1.04,1.05,1.88,2.35,1.88s2.35-.84,2.35-1.88v-12.43c0-1.04-1.05-1.88-2.35-1.88Z"/>
      <path d="M86.2,19.76c-1.3,0-2.35.84-2.35,1.88v12.43c0,1.04,1.05,1.88,2.35,1.88s2.35-.84,2.35-1.88v-12.43c0-1.04-1.05-1.88-2.35-1.88Z"/>
      <path d="M94.66,19.76c-1.3,0-2.35.84-2.35,1.88v12.43c0,1.04,1.05,1.88,2.35,1.88s2.35-.84,2.35-1.88v-12.43c0-1.04-1.05-1.88-2.35-1.88Z"/>
    </g>
    <g>
      <path d="M102.87,28.14c-1.3,0-2.35.84-2.35,1.88v12.43c0,1.04,1.05,1.88,2.35,1.88s2.35-.84,2.35-1.88v-12.43c0-1.04-1.05-1.88-2.35-1.88Z"/>
      <path d="M111.33,28.14c-1.3,0-2.35.84-2.35,1.88v12.43c0,1.04,1.05,1.88,2.35,1.88s2.35-.84,2.35-1.88v-12.43c0-1.04-1.05-1.88-2.35-1.88Z"/>
      <path d="M119.79,28.14c-1.3,0-2.35.84-2.35,1.88v12.43c0,1.04,1.05,1.88,2.35,1.88s2.35-.84,2.35-1.88v-12.43c0-1.04-1.05-1.88-2.35-1.88Z"/>
    </g>
    <g>
      <path d="M102.87,48.54c-1.3,0-2.35.84-2.35,1.88v12.43c0,1.04,1.05,1.88,2.35,1.88s2.35-.84,2.35-1.88v-12.43c0-1.04-1.05-1.88-2.35-1.88Z"/>
      <path d="M111.33,48.54c-1.3,0-2.35.84-2.35,1.88v12.43c0,1.04,1.05,1.88,2.35,1.88s2.35-.84,2.35-1.88v-12.43c0-1.04-1.05-1.88-2.35-1.88Z"/>
      <path d="M119.79,48.54c-1.3,0-2.35.84-2.35,1.88v12.43c0,1.04,1.05,1.88,2.35,1.88s2.35-.84,2.35-1.88v-12.43c0-1.04-1.05-1.88-2.35-1.88Z"/>
    </g>
    <g>
      <path d="M102.87,68.94c-1.3,0-2.35.84-2.35,1.88v12.43c0,1.04,1.05,1.88,2.35,1.88s2.35-.84,2.35-1.88v-12.43c0-1.04-1.05-1.88-2.35-1.88Z"/>
      <path d="M111.33,68.94c-1.3,0-2.35.84-2.35,1.88v12.43c0,1.04,1.05,1.88,2.35,1.88s2.35-.84,2.35-1.88v-12.43c0-1.04-1.05-1.88-2.35-1.88Z"/>
      <path d="M119.79,68.94c-1.3,0-2.35.84-2.35,1.88v12.43c0,1.04,1.05,1.88,2.35,1.88s2.35-.84,2.35-1.88v-12.43c0-1.04-1.05-1.88-2.35-1.88Z"/>
    </g>
    <g>
      <path d="M102.87,89.34c-1.3,0-2.35.84-2.35,1.88v12.43c0,1.04,1.05,1.88,2.35,1.88s2.35-.84,2.35-1.88v-12.43c0-1.04-1.05-1.88-2.35-1.88Z"/>
      <path d="M111.33,89.34c-1.3,0-2.35.84-2.35,1.88v12.43c0,1.04,1.05,1.88,2.35,1.88s2.35-.84,2.35-1.88v-12.43c0-1.04-1.05-1.88-2.35-1.88Z"/>
      <path d="M119.79,89.34c-1.3,0-2.35.84-2.35,1.88v12.43c0,1.04,1.05,1.88,2.35,1.88s2.35-.84,2.35-1.88v-12.43c0-1.04-1.05-1.88-2.35-1.88Z"/>
    </g>
    <g>
      <path d="M102.87,109.74c-1.3,0-2.35.84-2.35,1.88v12.43c0,1.04,1.05,1.88,2.35,1.88s2.35-.84,2.35-1.88v-12.43c0-1.04-1.05-1.88-2.35-1.88Z"/>
      <path d="M111.33,109.74c-1.3,0-2.35.84-2.35,1.88v12.43c0,1.04,1.05,1.88,2.35,1.88s2.35-.84,2.35-1.88v-12.43c0-1.04-1.05-1.88-2.35-1.88Z"/>
      <path d="M119.79,109.74c-1.3,0-2.35.84-2.35,1.88v12.43c0,1.04,1.05,1.88,2.35,1.88s2.35-.84,2.35-1.88v-12.43c0-1.04-1.05-1.88-2.35-1.88Z"/>
    </g>
    <g>
      <path d="M102.87,9.74c-1.3,0-2.35.84-2.35,1.88v12.43c0,1.04,1.05,1.88,2.35,1.88s2.35-.84,2.35-1.88v-12.43c0-1.04-1.05-1.88-2.35-1.88Z"/>
      <path d="M111.33,9.74c-1.3,0-2.35.84-2.35,1.88v12.43c0,1.04,1.05,1.88,2.35,1.88s2.35-.84,2.35-1.88v-12.43c0-1.04-1.05-1.88-2.35-1.88Z"/>
      <path d="M119.79,9.74c-1.3,0-2.35.84-2.35,1.88v12.43c0,1.04,1.05,1.88,2.35,1.88s2.35-.84,2.35-1.88v-12.43c0-1.04-1.05-1.88-2.35-1.88Z"/>
    </g>
    <g>
      <path d="M128,38.16c-1.3,0-2.35.84-2.35,1.88v12.43c0,1.04,1.05,1.88,2.35,1.88s2.35-.84,2.35-1.88v-12.43c0-1.04-1.05-1.88-2.35-1.88Z"/>
      <path d="M136.46,38.16c-1.3,0-2.35.84-2.35,1.88v12.43c0,1.04,1.05,1.88,2.35,1.88s2.35-.84,2.35-1.88v-12.43c0-1.04-1.05-1.88-2.35-1.88Z"/>
      <path d="M144.92,38.16c-1.3,0-2.35.84-2.35,1.88v12.43c0,1.04,1.05,1.88,2.35,1.88s2.35-.84,2.35-1.88v-12.43c0-1.04-1.05-1.88-2.35-1.88Z"/>
    </g>
    <g>
      <path d="M128,58.56c-1.3,0-2.35.84-2.35,1.88v12.43c0,1.04,1.05,1.88,2.35,1.88s2.35-.84,2.35-1.88v-12.43c0-1.04-1.05-1.88-2.35-1.88Z"/>
      <path d="M136.46,58.56c-1.3,0-2.35.84-2.35,1.88v12.43c0,1.04,1.05,1.88,2.35,1.88s2.35-.84,2.35-1.88v-12.43c0-1.04-1.05-1.88-2.35-1.88Z"/>
      <path d="M144.92,58.56c-1.3,0-2.35.84-2.35,1.88v12.43c0,1.04,1.05,1.88,2.35,1.88s2.35-.84,2.35-1.88v-12.43c0-1.04-1.05-1.88-2.35-1.88Z"/>
    </g>
    <g>
      <path d="M128,78.96c-1.3,0-2.35.84-2.35,1.88v12.43c0,1.04,1.05,1.88,2.35,1.88s2.35-.84,2.35-1.88v-12.43c0-1.04-1.05-1.88-2.35-1.88Z"/>
      <path d="M136.46,78.96c-1.3,0-2.35.84-2.35,1.88v12.43c0,1.04,1.05,1.88,2.35,1.88s2.35-.84,2.35-1.88v-12.43c0-1.04-1.05-1.88-2.35-1.88Z"/>
      <path d="M144.92,78.96c-1.3,0-2.35.84-2.35,1.88v12.43c0,1.04,1.05,1.88,2.35,1.88s2.35-.84,2.35-1.88v-12.43c0-1.04-1.05-1.88-2.35-1.88Z"/>
    </g>
    <g>
      <path d="M128,99.36c-1.3,0-2.35.84-2.35,1.88v12.43c0,1.04,1.05,1.88,2.35,1.88s2.35-.84,2.35-1.88v-12.43c0-1.04-1.05-1.88-2.35-1.88Z"/>
      <path d="M136.46,99.36c-1.3,0-2.35.84-2.35,1.88v12.43c0,1.04,1.05,1.88,2.35,1.88s2.35-.84,2.35-1.88v-12.43c0-1.04-1.05-1.88-2.35-1.88Z"/>
      <path d="M144.92,99.36c-1.3,0-2.35.84-2.35,1.88v12.43c0,1.04,1.05,1.88,2.35,1.88s2.35-.84,2.35-1.88v-12.43c0-1.04-1.05-1.88-2.35-1.88Z"/>
    </g>
    <g>
      <path d="M128,119.76c-1.3,0-2.35.84-2.35,1.88v12.43c0,1.04,1.05,1.88,2.35,1.88s2.35-.84,2.35-1.88v-12.43c0-1.04-1.05-1.88-2.35-1.88Z"/>
      <path d="M136.46,119.76c-1.3,0-2.35.84-2.35,1.88v12.43c0,1.04,1.05,1.88,2.35,1.88s2.35-.84,2.35-1.88v-12.43c0-1.04-1.05-1.88-2.35-1.88Z"/>
      <path d="M144.92,119.76c-1.3,0-2.35.84-2.35,1.88v12.43c0,1.04,1.05,1.88,2.35,1.88s2.35-.84,2.35-1.88v-12.43c0-1.04-1.05-1.88-2.35-1.88Z"/>
    </g>
    <g>
      <path d="M128,19.76c-1.3,0-2.35.84-2.35,1.88v12.43c0,1.04,1.05,1.88,2.35,1.88s2.35-.84,2.35-1.88v-12.43c0-1.04-1.05-1.88-2.35-1.88Z"/>
      <path d="M136.46,19.76c-1.3,0-2.35.84-2.35,1.88v12.43c0,1.04,1.05,1.88,2.35,1.88s2.35-.84,2.35-1.88v-12.43c0-1.04-1.05-1.88-2.35-1.88Z"/>
      <path d="M144.92,19.76c-1.3,0-2.35.84-2.35,1.88v12.43c0,1.04,1.05,1.88,2.35,1.88s2.35-.84,2.35-1.88v-12.43c0-1.04-1.05-1.88-2.35-1.88Z"/>
    </g>
    <g>
      <path d="M153.13,28.14c-1.3,0-2.35.84-2.35,1.88v12.43c0,1.04,1.05,1.88,2.35,1.88s2.35-.84,2.35-1.88v-12.43c0-1.04-1.05-1.88-2.35-1.88Z"/>
      <path d="M161.59,28.14c-1.3,0-2.35.84-2.35,1.88v12.43c0,1.04,1.05,1.88,2.35,1.88s2.35-.84,2.35-1.88v-12.43c0-1.04-1.05-1.88-2.35-1.88Z"/>
      <path d="M170.05,28.14c-1.3,0-2.35.84-2.35,1.88v12.43c0,1.04,1.05,1.88,2.35,1.88s2.35-.84,2.35-1.88v-12.43c0-1.04-1.05-1.88-2.35-1.88Z"/>
    </g>
    <g>
      <path d="M153.13,48.54c-1.3,0-2.35.84-2.35,1.88v12.43c0,1.04,1.05,1.88,2.35,1.88s2.35-.84,2.35-1.88v-12.43c0-1.04-1.05-1.88-2.35-1.88Z"/>
      <path d="M161.59,48.54c-1.3,0-2.35.84-2.35,1.88v12.43c0,1.04,1.05,1.88,2.35,1.88s2.35-.84,2.35-1.88v-12.43c0-1.04-1.05-1.88-2.35-1.88Z"/>
      <path d="M170.05,48.54c-1.3,0-2.35.84-2.35,1.88v12.43c0,1.04,1.05,1.88,2.35,1.88s2.35-.84,2.35-1.88v-12.43c0-1.04-1.05-1.88-2.35-1.88Z"/>
    </g>
    <g>
      <path d="M153.13,68.94c-1.3,0-2.35.84-2.35,1.88v12.43c0,1.04,1.05,1.88,2.35,1.88s2.35-.84,2.35-1.88v-12.43c0-1.04-1.05-1.88-2.35-1.88Z"/>
      <path d="M161.59,68.94c-1.3,0-2.35.84-2.35,1.88v12.43c0,1.04,1.05,1.88,2.35,1.88s2.35-.84,2.35-1.88v-12.43c0-1.04-1.05-1.88-2.35-1.88Z"/>
      <path d="M170.05,68.94c-1.3,0-2.35.84-2.35,1.88v12.43c0,1.04,1.05,1.88,2.35,1.88s2.35-.84,2.35-1.88v-12.43c0-1.04-1.05-1.88-2.35-1.88Z"/>
    </g>
    <g>
      <path d="M153.13,89.34c-1.3,0-2.35.84-2.35,1.88v12.43c0,1.04,1.05,1.88,2.35,1.88s2.35-.84,2.35-1.88v-12.43c0-1.04-1.05-1.88-2.35-1.88Z"/>
      <path d="M161.59,89.34c-1.3,0-2.35.84-2.35,1.88v12.43c0,1.04,1.05,1.88,2.35,1.88s2.35-.84,2.35-1.88v-12.43c0-1.04-1.05-1.88-2.35-1.88Z"/>
      <path d="M170.05,89.34c-1.3,0-2.35.84-2.35,1.88v12.43c0,1.04,1.05,1.88,2.35,1.88s2.35-.84,2.35-1.88v-12.43c0-1.04-1.05-1.88-2.35-1.88Z"/>
    </g>
    <g>
      <path d="M153.13,109.74c-1.3,0-2.35.84-2.35,1.88v12.43c0,1.04,1.05,1.88,2.35,1.88s2.35-.84,2.35-1.88v-12.43c0-1.04-1.05-1.88-2.35-1.88Z"/>
      <path d="M161.59,109.74c-1.3,0-2.35.84-2.35,1.88v12.43c0,1.04,1.05,1.88,2.35,1.88s2.35-.84,2.35-1.88v-12.43c0-1.04-1.05-1.88-2.35-1.88Z"/>
      <path d="M170.05,109.74c-1.3,0-2.35.84-2.35,1.88v12.43c0,1.04,1.05,1.88,2.35,1.88s2.35-.84,2.35-1.88v-12.43c0-1.04-1.05-1.88-2.35-1.88Z"/>
    </g>
    <g>
      <path d="M153.13,9.74c-1.3,0-2.35.84-2.35,1.88v12.43c0,1.04,1.05,1.88,2.35,1.88s2.35-.84,2.35-1.88v-12.43c0-1.04-1.05-1.88-2.35-1.88Z"/>
      <path d="M161.59,9.74c-1.3,0-2.35.84-2.35,1.88v12.43c0,1.04,1.05,1.88,2.35,1.88s2.35-.84,2.35-1.88v-12.43c0-1.04-1.05-1.88-2.35-1.88Z"/>
      <path d="M170.05,9.74c-1.3,0-2.35.84-2.35,1.88v12.43c0,1.04,1.05,1.88,2.35,1.88s2.35-.84,2.35-1.88v-12.43c0-1.04-1.05-1.88-2.35-1.88Z"/>
    </g>
    <g>
      <path d="M178.26,38.16c-1.3,0-2.35.84-2.35,1.88v12.43c0,1.04,1.05,1.88,2.35,1.88s2.35-.84,2.35-1.88v-12.43c0-1.04-1.05-1.88-2.35-1.88Z"/>
      <path d="M186.71,38.16c-1.3,0-2.35.84-2.35,1.88v12.43c0,1.04,1.05,1.88,2.35,1.88s2.35-.84,2.35-1.88v-12.43c0-1.04-1.05-1.88-2.35-1.88Z"/>
      <path d="M195.17,38.16c-1.3,0-2.35.84-2.35,1.88v12.43c0,1.04,1.05,1.88,2.35,1.88s2.35-.84,2.35-1.88v-12.43c0-1.04-1.05-1.88-2.35-1.88Z"/>
    </g>
    <g>
      <path d="M178.26,58.56c-1.3,0-2.35.84-2.35,1.88v12.43c0,1.04,1.05,1.88,2.35,1.88s2.35-.84,2.35-1.88v-12.43c0-1.04-1.05-1.88-2.35-1.88Z"/>
      <path d="M186.71,58.56c-1.3,0-2.35.84-2.35,1.88v12.43c0,1.04,1.05,1.88,2.35,1.88s2.35-.84,2.35-1.88v-12.43c0-1.04-1.05-1.88-2.35-1.88Z"/>
      <path d="M195.17,58.56c-1.3,0-2.35.84-2.35,1.88v12.43c0,1.04,1.05,1.88,2.35,1.88s2.35-.84,2.35-1.88v-12.43c0-1.04-1.05-1.88-2.35-1.88Z"/>
    </g>
    <g>
      <path d="M178.26,78.96c-1.3,0-2.35.84-2.35,1.88v12.43c0,1.04,1.05,1.88,2.35,1.88s2.35-.84,2.35-1.88v-12.43c0-1.04-1.05-1.88-2.35-1.88Z"/>
      <path d="M186.71,78.96c-1.3,0-2.35.84-2.35,1.88v12.43c0,1.04,1.05,1.88,2.35,1.88s2.35-.84,2.35-1.88v-12.43c0-1.04-1.05-1.88-2.35-1.88Z"/>
      <path d="M195.17,78.96c-1.3,0-2.35.84-2.35,1.88v12.43c0,1.04,1.05,1.88,2.35,1.88s2.35-.84,2.35-1.88v-12.43c0-1.04-1.05-1.88-2.35-1.88Z"/>
    </g>
    <g>
      <path d="M178.26,99.36c-1.3,0-2.35.84-2.35,1.88v12.43c0,1.04,1.05,1.88,2.35,1.88s2.35-.84,2.35-1.88v-12.43c0-1.04-1.05-1.88-2.35-1.88Z"/>
      <path d="M186.71,99.36c-1.3,0-2.35.84-2.35,1.88v12.43c0,1.04,1.05,1.88,2.35,1.88s2.35-.84,2.35-1.88v-12.43c0-1.04-1.05-1.88-2.35-1.88Z"/>
      <path d="M195.17,99.36c-1.3,0-2.35.84-2.35,1.88v12.43c0,1.04,1.05,1.88,2.35,1.88s2.35-.84,2.35-1.88v-12.43c0-1.04-1.05-1.88-2.35-1.88Z"/>
    </g>
    <g>
      <path d="M178.26,119.76c-1.3,0-2.35.84-2.35,1.88v12.43c0,1.04,1.05,1.88,2.35,1.88s2.35-.84,2.35-1.88v-12.43c0-1.04-1.05-1.88-2.35-1.88Z"/>
      <path d="M186.71,119.76c-1.3,0-2.35.84-2.35,1.88v12.43c0,1.04,1.05,1.88,2.35,1.88s2.35-.84,2.35-1.88v-12.43c0-1.04-1.05-1.88-2.35-1.88Z"/>
      <path d="M195.17,119.76c-1.3,0-2.35.84-2.35,1.88v12.43c0,1.04,1.05,1.88,2.35,1.88s2.35-.84,2.35-1.88v-12.43c0-1.04-1.05-1.88-2.35-1.88Z"/>
    </g>
    <g>
      <path d="M178.26,19.76c-1.3,0-2.35.84-2.35,1.88v12.43c0,1.04,1.05,1.88,2.35,1.88s2.35-.84,2.35-1.88v-12.43c0-1.04-1.05-1.88-2.35-1.88Z"/>
      <path d="M186.71,19.76c-1.3,0-2.35.84-2.35,1.88v12.43c0,1.04,1.05,1.88,2.35,1.88s2.35-.84,2.35-1.88v-12.43c0-1.04-1.05-1.88-2.35-1.88Z"/>
      <path d="M195.17,19.76c-1.3,0-2.35.84-2.35,1.88v12.43c0,1.04,1.05,1.88,2.35,1.88s2.35-.84,2.35-1.88v-12.43c0-1.04-1.05-1.88-2.35-1.88Z"/>
    </g>
  </g>
</svg>